<svg width="91" height="91" viewBox="0 0 91 91" fill="none" xmlns="http://www.w3.org/2000/svg">
<path d="M80.9639 55.0785C80.9442 58.0827 78.4504 60.4268 75.296 60.4062C72.1416 60.3855 69.6785 58.0088 69.6983 55.0046C69.718 52.0004 75.3944 45.3852 75.3944 45.3852C75.3944 45.3852 80.9823 52.2889 80.9639 55.0785Z" fill="#5DB6E2"/>
<path fill-rule="evenodd" clip-rule="evenodd" d="M45.7168 33.5335L78.9864 33.7517C81.1931 33.7661 82.9704 35.5668 82.9558 37.7736C82.9414 39.9803 81.1408 41.7576 78.934 41.743L78.9244 41.743C79.088 41.4299 79.1788 41.089 79.1811 40.7318C79.1914 39.1764 77.5184 37.9045 75.4444 37.8909C73.3703 37.8773 71.681 39.1272 71.6706 40.6826C71.6683 41.0396 71.7546 41.3818 71.9142 41.6971L47.4637 41.5368L47.4507 43.5346L60.3853 43.6195C62.4592 43.6331 64.1295 45.3254 64.1159 47.3992L64.1127 47.8803C64.0991 49.9541 62.4068 51.6244 60.3328 51.6108L47.3983 51.5261L47.385 53.5238L58.2335 53.595C60.3075 53.6087 61.9776 55.301 61.964 57.3748L61.961 57.8558C61.9474 59.9298 60.2551 61.6 58.1811 61.5863L43.1602 61.4879L43.1472 63.4857L50.8662 63.5365C52.9401 63.5499 54.6104 65.2422 54.5967 67.3162L54.5936 67.7972C54.58 69.8711 52.8877 71.5414 50.8138 71.5278L36.836 71.4361L29.1391 71.3857C17.2592 71.3076 7.69187 61.614 7.76977 49.7341C7.82709 40.9948 13.1665 33.1587 21.2791 29.908L45.5407 20.1862C47.3743 19.4515 49.4727 20.0496 50.6434 21.6408C52.2799 23.865 51.4463 27.0322 48.9269 28.1627L44.9605 29.9428C43.1197 30.7688 43.6993 33.5203 45.7168 33.5335Z" fill="#5DB6E2"/>
</svg>
