<svg width="63" height="91" viewBox="0 0 63 91" fill="none" xmlns="http://www.w3.org/2000/svg">
<path fill-rule="evenodd" clip-rule="evenodd" d="M31.444 20.8403C37.0078 20.8813 41.5513 16.4043 41.5924 10.8405C41.6334 5.27681 37.1564 0.733224 31.5926 0.692176C26.0288 0.651127 21.4853 5.12816 21.4443 10.6919C21.4032 16.2557 25.8802 20.7992 31.444 20.8403ZM62.5663 26.5335C63.2408 28.9125 61.8589 31.388 59.4796 32.0622C54.1504 33.5728 49.337 34.7044 44.769 35.4487L44.5789 61.223L44.5788 61.2356L44.3971 85.861C44.3794 88.2548 42.4819 90.2114 40.0895 90.3024C37.6974 90.3931 35.6568 88.5861 35.4577 86.2005L33.4007 61.5586C33.3894 61.423 33.3844 61.2878 33.3854 61.153L28.908 61.12C28.907 61.2547 28.9 61.3899 28.8867 61.5253L26.4663 86.1342C26.232 88.5166 24.165 90.2932 21.7745 90.1673C19.3839 90.041 17.5153 88.0567 17.5329 85.6628L17.9055 35.1679C13.3609 34.3497 8.58173 33.1708 3.30145 31.6637C0.923473 30.985 -0.453912 28.507 0.224748 26.1293C0.903633 23.7513 3.3814 22.3739 5.75937 23.0526C16.0548 25.9913 23.7962 27.4655 31.4139 27.5558C39.0162 27.6459 46.7585 26.3604 57.0375 23.4468C59.4167 22.7723 61.8921 24.1542 62.5663 26.5335Z" fill="#F28281"/>
</svg>
