<svg width="87" height="86" viewBox="0 0 87 86" fill="none" xmlns="http://www.w3.org/2000/svg">
<path d="M27.7793 43.8699L27.653 60.9908C27.5752 71.5269 36.0841 80.1623 46.6202 80.24C57.1562 80.3177 65.7916 71.8088 65.8694 61.2728L65.9727 47.2697C71.4068 46.3076 75.5693 41.579 75.6114 35.8657C75.6589 29.4273 70.4587 24.1498 64.0203 24.1023C57.5819 24.0548 52.3045 29.255 52.257 35.6934C52.2148 41.4067 56.3071 46.1962 61.7264 47.2383L61.6231 61.2415C61.5626 69.4368 54.8468 76.0542 46.6515 75.9937C38.4562 75.9333 31.8388 69.2175 31.8992 61.0222L32.0255 43.9012C40.9855 42.911 48.0131 35.3393 48.0812 26.1079L48.23 5.93816L35.4912 5.84418L35.4599 10.0904L43.9524 10.1531L43.8349 26.0766C43.7788 33.6859 37.542 39.8313 29.9327 39.7752C22.3234 39.719 16.178 33.4823 16.2342 25.873L16.3517 9.94947L24.8442 10.0121L24.8755 5.76586L12.1367 5.67188L11.9879 25.8416C11.9198 35.073 18.8349 42.7476 27.7793 43.8699ZM56.5032 35.7247C56.5335 31.627 59.8914 28.3183 63.989 28.3485C68.0867 28.3788 71.3954 31.7367 71.3652 35.8343C71.3349 39.932 67.977 43.2407 63.8794 43.2105C59.7817 43.1803 56.473 39.8223 56.5032 35.7247Z" fill="#47CBB4"/>
</svg>
